HIERARCHY
ROOT RootJoint
{
    OFFSET   0.000000   0.000000   0.000000
    CHANNELS 6 Xposition Yposition Zposition Xrotation Yrotation Zrotation
    JOINT pelvis_lowerback
    {
        OFFSET   0.000000   0.093605   0.000000
        CHANNELS 3 Xrotation Yrotation Zrotation
        JOINT lowerback_torso
        {
            OFFSET   0.000000   0.100000   0.000000
            CHANNELS 3 Xrotation Yrotation Zrotation
            JOINT torso_head
            {
                OFFSET   0.000000   0.282350   0.000000
                CHANNELS 3 Xrotation Yrotation Zrotation
                End Site
                {
                    OFFSET   0.000000   0.192650   0.000000
                }
            }
            JOINT rTorso_Clavicle
            {
                OFFSET  -0.001000   0.157500   0.000000
                CHANNELS 3 Xrotation Yrotation Zrotation
                JOINT rShoulder
                {
                    OFFSET  -0.117647   0.000000   0.000000
                    CHANNELS 3 Xrotation Yrotation Zrotation
                    JOINT rElbow
                    {
                        OFFSET  -0.245000   0.000000   0.000000
                        CHANNELS 3 Xrotation Yrotation Zrotation
                        JOINT rWrist
                        {
                            OFFSET  -0.240000   0.000000   0.000000
                            CHANNELS 3 Xrotation Yrotation Zrotation
                            End Site
                            {
                                OFFSET  -0.116353  -0.002500   0.000000
                            }
                        }
                    }
                }
            }
            JOINT lTorso_Clavicle
            {
                OFFSET   0.001000   0.157500   0.000000
                CHANNELS 3 Xrotation Yrotation Zrotation
                JOINT lShoulder
                {
                    OFFSET   0.117647   0.000000   0.000000
                    CHANNELS 3 Xrotation Yrotation Zrotation
                    JOINT lElbow
                    {
                        OFFSET   0.245000   0.000000   0.000000
                        CHANNELS 3 Xrotation Yrotation Zrotation
                        JOINT lWrist
                        {
                            OFFSET   0.240000   0.000000   0.000000
                            CHANNELS 3 Xrotation Yrotation Zrotation
                            End Site
                            {
                                OFFSET   0.116353  -0.002500   0.000000
                            }
                        }
                    }
                }
            }
        }
    }
    JOINT rHip
    {
        OFFSET  -0.100000  -0.051395   0.000000
        CHANNELS 3 Xrotation Yrotation Zrotation
        JOINT rKnee
        {
            OFFSET   0.000000  -0.410000   0.000000
            CHANNELS 3 Xrotation Yrotation Zrotation
            JOINT rAnkle
            {
                OFFSET   0.000000  -0.390000   0.000000
                CHANNELS 3 Xrotation Yrotation Zrotation
                JOINT rToeJoint
                {
                    OFFSET   0.000000  -0.050000   0.130000
                    CHANNELS 3 Xrotation Yrotation Zrotation
                    End Site
                    {
                        OFFSET  -0.010000   0.002000   0.060000
                    }
                }
            }
        }
    }
    JOINT lHip
    {
        OFFSET   0.100000  -0.051395   0.000000
        CHANNELS 3 Xrotation Yrotation Zrotation
        JOINT lKnee
        {
            OFFSET   0.000000  -0.410000   0.000000
            CHANNELS 3 Xrotation Yrotation Zrotation
            JOINT lAnkle
            {
                OFFSET   0.000000  -0.390000   0.000000
                CHANNELS 3 Xrotation Yrotation Zrotation
                JOINT lToeJoint
                {
                    OFFSET   0.000000  -0.050000   0.130000
                    CHANNELS 3 Xrotation Yrotation Zrotation
                    End Site
                    {
                        OFFSET   0.010000   0.002000   0.060000
                    }
                }
            }
        }
    }
}
MOTION
Frames: 5
Frame Time:   0.008333
 -2.367403   0.912419   3.992593  14.200636   4.012086  -2.399866   6.116202  -1.180416   0.957042  -3.798883  -1.249301   1.486890   1.355750   1.835919   0.769870  -7.837686 -11.341788 -13.321680 -25.740718  -2.070941  33.785578 -179.999967  42.593589 179.999967   1.194819   9.975567  -1.452656  -8.603165   7.890026  12.318542 -25.279966   1.948897 -43.568238 179.999352 -37.818879 179.999213   2.293054  -9.892136   3.287911 -17.913270  -4.702220  -9.480996   9.890196   0.000005   0.000163  -0.734363  -2.569405   4.956720  -7.793838  -0.000160  -0.000138 -16.535020  -2.381423  10.007127   7.691993  -0.000006  -0.000003  -5.763104   1.785595  -1.640091   0.861772   0.000003  -0.000011
 -2.367497   0.912386   3.992365  14.248307   4.016033  -2.400120   6.153210  -1.196562   0.985256  -3.797285  -1.252835   1.507783   1.344230   1.819123   0.745131  -7.825988 -11.296845 -13.370767 -25.724277  -1.994874  33.688080 -179.999924  42.615724 179.999931   1.265352   9.968375  -1.774189  -8.595340   7.838319  12.362457 -25.279881   1.900826 -43.548697 179.999330 -37.732970 179.999210   2.333181  -9.881201   3.575035 -18.014677  -4.667108  -9.490218   9.971618   0.000008   0.000152  -0.766704  -2.543553   4.971221  -7.751111  -0.000135  -0.000090 -16.601762  -2.418355  10.008342   7.699846  -0.000005  -0.000004  -5.751800   1.789604  -1.637413   0.856626   0.000003  -0.000007
 -2.367555   0.912350   3.992157  14.294369   4.012932  -2.395035   6.187114  -1.212367   1.014213  -3.798629  -1.256945   1.527928   1.333303   1.803154   0.721348  -7.816736 -11.255543 -13.422063 -25.710509  -1.923860  33.592981 -179.999892  42.638416 179.999905   1.334094   9.960709  -2.097480  -8.590098   7.790429  12.406485 -25.281898   1.855118 -43.528939 179.999322 -37.649940 179.999222   2.371635  -9.870097   3.865414 -18.113531  -4.633252  -9.503966  10.048574   0.000011   0.000135  -0.797739  -2.519722   4.984809  -7.713387  -0.000113  -0.000057 -16.663386  -2.453979  10.004864   7.707124  -0.000005  -0.000005  -5.743377   1.792427  -1.636634   0.852205   0.000003  -0.000005
 -2.367584   0.912312   3.991969  14.337715   4.000889  -2.386006   6.217907  -1.226954   1.043369  -3.800931  -1.260943   1.548123   1.323022   1.788261   0.699346  -7.808714 -11.217183 -13.471831 -25.698218  -1.857490  33.503230 -179.999873  42.659829 179.999891   1.399726   9.952856  -2.411542  -8.585916   7.745726  12.449137 -25.284545   1.812185 -43.509871 179.999329 -37.572018 179.999246   2.407784  -9.859234   4.147844 -18.208542  -4.601244  -9.519486  10.119961   0.000012   0.000114  -0.825769  -2.498004   4.997013  -7.680041  -0.000094  -0.000037 -16.718165  -2.488381   9.999401   7.713568  -0.000004  -0.000007  -5.738597   1.793290  -1.636716   0.848622   0.000002  -0.000002
 -2.367588   0.912274   3.991799  14.378359   3.979506  -2.373413   6.245918  -1.240312   1.072299  -3.803790  -1.264647   1.568420   1.313300   1.774374   0.679009  -7.801380 -11.181426 -13.518774 -25.686880  -1.795511  33.419242 -179.999863  42.679818 179.999884   1.462261   9.944918  -2.714163  -8.582316   7.703976  12.489827 -25.287380   1.771977 -43.491720 179.999347 -37.499216 179.999279   2.441673  -9.848712   4.420088 -18.300000  -4.571045  -9.536046  10.185944   0.000012   0.000090  -0.850861  -2.478195   5.007917  -7.649465  -0.000078  -0.000025 -16.766313  -2.521631   9.992704   7.719422  -0.000004  -0.000008  -5.737505   1.792404  -1.637589   0.845713   0.000002  -0.000000
